<svg width="81" height="24" viewBox="0 0 81 24" fill="none" xmlns="http://www.w3.org/2000/svg">
<path d="M10.15 1.79255H14.02L23.26 23.0542H17.98L16.15 18.5496H7.89997L6.12997 23.0542H0.969971L10.15 1.79255ZM11.95 7.97885L9.36997 14.5856H14.56L11.95 7.97885Z" fill="#01996D"/>
<path d="M24.8863 0.351074H29.3863V23.0542H24.8863V0.351074Z" fill="#01996D"/>
<path d="M32.6793 8.45934H37.1793V23.0542H32.6793V8.45934ZM32.3193 3.86466C32.3193 3.14392 32.5693 2.5333 33.0693 2.03279C33.5893 1.51226 34.2093 1.25199 34.9293 1.25199C35.6493 1.25199 36.2593 1.51226 36.7593 2.03279C37.2793 2.5333 37.5393 3.14392 37.5393 3.86466C37.5393 4.58539 37.2793 5.20602 36.7593 5.72655C36.2593 6.22706 35.6493 6.47732 34.9293 6.47732C34.2093 6.47732 33.5893 6.22706 33.0693 5.72655C32.5693 5.20602 32.3193 4.58539 32.3193 3.86466Z" fill="#01996D"/>
<path d="M38.8822 8.45934H43.7422L47.4322 18.3694H47.4922L50.9122 8.45934H55.4422L49.6822 23.0542H44.9122L38.8822 8.45934Z" fill="#01996D"/>
<path d="M57.1422 8.45934H61.6422V23.0542H57.1422V8.45934ZM56.7822 3.86466C56.7822 3.14392 57.0322 2.5333 57.5322 2.03279C58.0522 1.51226 58.6722 1.25199 59.3922 1.25199C60.1122 1.25199 60.7222 1.51226 61.2222 2.03279C61.7422 2.5333 62.0022 3.14392 62.0022 3.86466C62.0022 4.58539 61.7422 5.20602 61.2222 5.72655C60.7222 6.22706 60.1122 6.47732 59.3922 6.47732C58.6722 6.47732 58.0522 6.22706 57.5322 5.72655C57.0322 5.20602 56.7822 4.58539 56.7822 3.86466Z" fill="#01996D"/>
<path d="M64.3351 15.7568C64.3351 14.5956 64.5451 13.5445 64.9651 12.6036C65.3851 11.6626 65.9551 10.8618 66.6751 10.2011C67.4151 9.52042 68.2751 8.99989 69.2551 8.63952C70.2551 8.27916 71.3151 8.09897 72.4351 8.09897C73.5551 8.09897 74.6051 8.27916 75.5851 8.63952C76.5851 8.99989 77.4451 9.52042 78.1651 10.2011C78.9051 10.8618 79.4851 11.6626 79.9051 12.6036C80.3251 13.5445 80.5351 14.5956 80.5351 15.7568C80.5351 16.918 80.3251 17.969 79.9051 18.91C79.4851 19.851 78.9051 20.6618 78.1651 21.3425C77.4451 22.0031 76.5851 22.5137 75.5851 22.874C74.6051 23.2344 73.5551 23.4146 72.4351 23.4146C71.3151 23.4146 70.2551 23.2344 69.2551 22.874C68.2751 22.5137 67.4151 22.0031 66.6751 21.3425C65.9551 20.6618 65.3851 19.851 64.9651 18.91C64.5451 17.969 64.3351 16.918 64.3351 15.7568ZM68.8351 15.7568C68.8351 16.8579 69.1451 17.7488 69.7651 18.4295C70.4051 19.1102 71.2951 19.4505 72.4351 19.4505C73.5751 19.4505 74.4551 19.1102 75.0751 18.4295C75.7151 17.7488 76.0351 16.8579 76.0351 15.7568C76.0351 14.6557 75.7151 13.7647 75.0751 13.0841C74.4551 12.4034 73.5751 12.063 72.4351 12.063C71.2951 12.063 70.4051 12.4034 69.7651 13.0841C69.1451 13.7647 68.8351 14.6557 68.8351 15.7568Z" fill="#01996D"/>
</svg>
